<svg xmlns="http://www.w3.org/2000/svg" width="640" height="640" viewBox="0 0 320 320">
    <defs>
      <filter id="shadow" x="-20%" y="-20%" width="140%" height="150%"><feDropShadow dx="0" dy="10" stdDeviation="8" flood-color="#5b3828" flood-opacity=".18"/></filter>
      <pattern id="dots" width="32" height="32" patternUnits="userSpaceOnUse"><circle cx="8" cy="8" r="3" fill="#fff" opacity=".28"/></pattern>
    </defs>
    <rect width="320" height="320" rx="38" fill="#ffe2b8"/>
    <rect width="320" height="320" rx="38" fill="url(#dots)"/>
    <circle cx="62" cy="67" r="24" fill="#fff" opacity=".32"/>
    <circle cx="270" cy="70" r="18" fill="#fff" opacity=".28"/>
    <g filter="url(#shadow)">
      <ellipse cx="160" cy="194" rx="107" ry="62" fill="#fff8ec"/>
      <ellipse cx="160" cy="195" rx="83" ry="42" fill="#f5e3d0" opacity=".55"/>
      
        <ellipse cx="126" cy="162" rx="46" ry="28" fill="#b95f42" transform="rotate(-18 126 162)"/>
        <ellipse cx="184" cy="151" rx="48" ry="29" fill="#b95f42" transform="rotate(18 184 151)"/>
        <ellipse cx="156" cy="184" rx="52" ry="30" fill="#b95f42"/>
        <circle cx="112" cy="149" r="13" fill="#fff2dc"/><circle cx="199" cy="138" r="13" fill="#fff2dc"/>
        <path d="M105 162c35 22 70 25 106 0" fill="none" stroke="#6b3c29" stroke-width="9" stroke-linecap="round" opacity=".35"/>
      <circle cx="88" cy="226" r="7" fill="#64a66b"/>
      <circle cx="238" cy="130" r="7" fill="#f6c34d"/>
      <circle cx="229" cy="226" r="5" fill="#fff3d6"/>
    </g>
    <text x="160" y="286" text-anchor="middle" font-family="Arial, Microsoft YaHei, sans-serif" font-size="25" font-weight="800" fill="#473026">可乐鸡翅</text>
  </svg>