<svg xmlns="http://www.w3.org/2000/svg" width="640" height="640" viewBox="0 0 320 320">
    <defs>
      <filter id="shadow" x="-20%" y="-20%" width="140%" height="150%"><feDropShadow dx="0" dy="10" stdDeviation="8" flood-color="#5b3828" flood-opacity=".18"/></filter>
      <pattern id="dots" width="32" height="32" patternUnits="userSpaceOnUse"><circle cx="8" cy="8" r="3" fill="#fff" opacity=".28"/></pattern>
    </defs>
    <rect width="320" height="320" rx="38" fill="#dff3de"/>
    <rect width="320" height="320" rx="38" fill="url(#dots)"/>
    <circle cx="62" cy="67" r="24" fill="#fff" opacity=".32"/>
    <circle cx="270" cy="70" r="18" fill="#fff" opacity=".28"/>
    <g filter="url(#shadow)">
      <ellipse cx="160" cy="194" rx="107" ry="62" fill="#fffaf0"/>
      <ellipse cx="160" cy="195" rx="83" ry="42" fill="#f5e3d0" opacity=".55"/>
      
        <ellipse cx="117" cy="174" rx="47" ry="20" fill="#56a96b" transform="rotate(-28 117 174)"/>
        <ellipse cx="168" cy="159" rx="50" ry="21" fill="#75c87a" transform="rotate(18 168 159)"/>
        <ellipse cx="203" cy="205" rx="48" ry="20" fill="#2c7b4a" transform="rotate(-15 203 205)"/>
        <circle cx="143" cy="182" r="8" fill="#dff6cf"/><circle cx="198" cy="158" r="8" fill="#dff6cf"/>
      <circle cx="88" cy="226" r="7" fill="#d84f42"/>
      <circle cx="238" cy="130" r="7" fill="#f1d564"/>
      <circle cx="229" cy="226" r="5" fill="#fff3d6"/>
    </g>
    <text x="160" y="286" text-anchor="middle" font-family="Arial, Microsoft YaHei, sans-serif" font-size="25" font-weight="800" fill="#473026">拌黄瓜</text>
  </svg>