<svg xmlns="http://www.w3.org/2000/svg" width="640" height="640" viewBox="0 0 320 320">
    <defs>
      <filter id="shadow" x="-20%" y="-20%" width="140%" height="150%"><feDropShadow dx="0" dy="10" stdDeviation="8" flood-color="#5b3828" flood-opacity=".18"/></filter>
      <pattern id="dots" width="32" height="32" patternUnits="userSpaceOnUse"><circle cx="8" cy="8" r="3" fill="#fff" opacity=".28"/></pattern>
    </defs>
    <rect width="320" height="320" rx="38" fill="#ffe6a6"/>
    <rect width="320" height="320" rx="38" fill="url(#dots)"/>
    <circle cx="62" cy="67" r="24" fill="#fff" opacity=".32"/>
    <circle cx="270" cy="70" r="18" fill="#fff" opacity=".28"/>
    <g filter="url(#shadow)">
      <ellipse cx="160" cy="194" rx="107" ry="62" fill="#fffaf0"/>
      <ellipse cx="160" cy="195" rx="83" ry="42" fill="#f5e3d0" opacity=".55"/>
      
        <path d="M93 140h132l-14 76c-3 17-18 29-36 29h-31c-18 0-33-12-36-29l-15-76z" fill="#d99a2f"/>
        <ellipse cx="159" cy="140" rx="72" ry="22" fill="#8b5b24"/>
        <circle cx="130" cy="142" r="15" fill="#f2ca77"/><circle cx="174" cy="135" r="13" fill="#5fa66d"/><circle cx="196" cy="147" r="11" fill="#e66a4c"/>
      <circle cx="88" cy="226" r="7" fill="#f2c14e"/>
      <circle cx="238" cy="130" r="7" fill="#6aa75c"/>
      <circle cx="229" cy="226" r="5" fill="#fff3d6"/>
    </g>
    <text x="160" y="286" text-anchor="middle" font-family="Arial, Microsoft YaHei, sans-serif" font-size="25" font-weight="800" fill="#473026">咖喱鸡</text>
  </svg>