<svg xmlns="http://www.w3.org/2000/svg" width="640" height="640" viewBox="0 0 320 320">
    <defs>
      <filter id="shadow" x="-20%" y="-20%" width="140%" height="150%"><feDropShadow dx="0" dy="10" stdDeviation="8" flood-color="#5b3828" flood-opacity=".18"/></filter>
      <pattern id="dots" width="32" height="32" patternUnits="userSpaceOnUse"><circle cx="8" cy="8" r="3" fill="#fff" opacity=".28"/></pattern>
    </defs>
    <rect width="320" height="320" rx="38" fill="#ffefc7"/>
    <rect width="320" height="320" rx="38" fill="url(#dots)"/>
    <circle cx="62" cy="67" r="24" fill="#fff" opacity=".32"/>
    <circle cx="270" cy="70" r="18" fill="#fff" opacity=".28"/>
    <g filter="url(#shadow)">
      <ellipse cx="160" cy="194" rx="107" ry="62" fill="#fffaf0"/>
      <ellipse cx="160" cy="195" rx="83" ry="42" fill="#f5e3d0" opacity=".55"/>
      
        <ellipse cx="160" cy="187" rx="87" ry="45" fill="#f5d16d"/>
        <circle cx="120" cy="174" r="12" fill="#65a66f"/><circle cx="181" cy="162" r="10" fill="#e65f4c"/><circle cx="209" cy="196" r="11" fill="#fff0ca"/>
        <path d="M92 202c45 30 96 32 142 0" fill="none" stroke="#d9933b" stroke-width="8" stroke-linecap="round" opacity=".35"/>
      <circle cx="88" cy="226" r="7" fill="#65a66f"/>
      <circle cx="238" cy="130" r="7" fill="#e65f4c"/>
      <circle cx="229" cy="226" r="5" fill="#fff3d6"/>
    </g>
    <text x="160" y="286" text-anchor="middle" font-family="Arial, Microsoft YaHei, sans-serif" font-size="25" font-weight="800" fill="#473026">炒饭</text>
  </svg>