<svg xmlns="http://www.w3.org/2000/svg" width="960" height="640" viewBox="0 0 960 640" role="img" aria-label="cartoon meat dish">
  <defs>
    <linearGradient id="meat-bg" x1="0" x2="1" y1="0" y2="1">
      <stop offset="0" stop-color="#ffe6cf"/>
      <stop offset="1" stop-color="#ffd1bd"/>
    </linearGradient>
    <filter id="soft-shadow" x="-20%" y="-20%" width="140%" height="150%">
      <feDropShadow dx="0" dy="18" stdDeviation="18" flood-color="#7a3f2d" flood-opacity=".2"/>
    </filter>
  </defs>
  <rect width="960" height="640" rx="42" fill="url(#meat-bg)"/>
  <circle cx="128" cy="116" r="54" fill="#fff8ee" opacity=".56"/>
  <circle cx="820" cy="112" r="36" fill="#fff8ee" opacity=".5"/>
  <circle cx="806" cy="512" r="76" fill="#fff8ee" opacity=".34"/>
  <g filter="url(#soft-shadow)">
    <ellipse cx="480" cy="408" rx="294" ry="112" fill="#fff8ea"/>
    <ellipse cx="480" cy="412" rx="230" ry="74" fill="#f4dcc5"/>
    <path d="M313 348c34-77 103-125 183-113 66 10 122 62 125 128 4 93-86 144-180 132-88-12-165-64-128-147z" fill="#c85f44"/>
    <path d="M397 264c-48 24-76 66-85 105 67 37 168 43 252 3 18-63-27-119-90-133-26-6-53 3-77 25z" fill="#de7655"/>
    <path d="M340 370c74 46 171 50 249 3" fill="none" stroke="#8b392f" stroke-width="22" stroke-linecap="round" opacity=".35"/>
    <circle cx="637" cy="294" r="39" fill="#fff2d8"/>
    <rect x="604" y="274" width="128" height="43" rx="22" fill="#fff2d8"/>
    <circle cx="735" cy="293" r="32" fill="#fff2d8"/>
    <path d="M299 441c93 42 240 57 366 3" fill="none" stroke="#d5b797" stroke-width="18" stroke-linecap="round" opacity=".45"/>
    <circle cx="317" cy="303" r="18" fill="#f5c04a"/>
    <circle cx="606" cy="459" r="22" fill="#58a866"/>
    <circle cx="671" cy="420" r="16" fill="#f05a4b"/>
    <path d="M356 226c-18-30-8-63 22-82M424 209c-7-38 13-65 51-82" fill="none" stroke="#fff8ea" stroke-width="14" stroke-linecap="round" opacity=".58"/>
  </g>
</svg>
