<svg xmlns="http://www.w3.org/2000/svg" width="640" height="640" viewBox="0 0 320 320">
    <defs>
      <filter id="shadow" x="-20%" y="-20%" width="140%" height="150%"><feDropShadow dx="0" dy="10" stdDeviation="8" flood-color="#5b3828" flood-opacity=".18"/></filter>
      <pattern id="dots" width="32" height="32" patternUnits="userSpaceOnUse"><circle cx="8" cy="8" r="3" fill="#fff" opacity=".28"/></pattern>
    </defs>
    <rect width="320" height="320" rx="38" fill="#efe0cf"/>
    <rect width="320" height="320" rx="38" fill="url(#dots)"/>
    <circle cx="62" cy="67" r="24" fill="#fff" opacity=".32"/>
    <circle cx="270" cy="70" r="18" fill="#fff" opacity=".28"/>
    <g filter="url(#shadow)">
      <ellipse cx="160" cy="194" rx="107" ry="62" fill="#fffaf0"/>
      <ellipse cx="160" cy="195" rx="83" ry="42" fill="#f5e3d0" opacity=".55"/>
      
        <ellipse cx="132" cy="135" rx="44" ry="30" fill="#8b6847"/>
        <rect x="115" y="139" width="35" height="84" rx="17" fill="#d8b58c"/>
        <ellipse cx="202" cy="154" rx="43" ry="29" fill="#b48a62"/>
        <rect x="185" y="157" width="34" height="75" rx="17" fill="#e0c39d"/>
      <circle cx="88" cy="226" r="7" fill="#68a86d"/>
      <circle cx="238" cy="130" r="7" fill="#e05d4f"/>
      <circle cx="229" cy="226" r="5" fill="#fff3d6"/>
    </g>
    <text x="160" y="286" text-anchor="middle" font-family="Arial, Microsoft YaHei, sans-serif" font-size="25" font-weight="800" fill="#473026">杏鲍菇</text>
  </svg>