<svg xmlns="http://www.w3.org/2000/svg" width="640" height="640" viewBox="0 0 320 320">
    <defs>
      <filter id="shadow" x="-20%" y="-20%" width="140%" height="150%"><feDropShadow dx="0" dy="10" stdDeviation="8" flood-color="#5b3828" flood-opacity=".18"/></filter>
      <pattern id="dots" width="32" height="32" patternUnits="userSpaceOnUse"><circle cx="8" cy="8" r="3" fill="#fff" opacity=".28"/></pattern>
    </defs>
    <rect width="320" height="320" rx="38" fill="#ffe7bf"/>
    <rect width="320" height="320" rx="38" fill="url(#dots)"/>
    <circle cx="62" cy="67" r="24" fill="#fff" opacity=".32"/>
    <circle cx="270" cy="70" r="18" fill="#fff" opacity=".28"/>
    <g filter="url(#shadow)">
      <ellipse cx="160" cy="194" rx="107" ry="62" fill="#fffaf0"/>
      <ellipse cx="160" cy="195" rx="83" ry="42" fill="#f5e3d0" opacity=".55"/>
      <ellipse cx="96" cy="144" rx="19" ry="12" fill="#d8904a" transform="rotate(0 96 144)"/><ellipse cx="143" cy="144" rx="19" ry="12" fill="#b8743e" transform="rotate(19 143 144)"/><ellipse cx="172" cy="144" rx="19" ry="12" fill="#d8904a" transform="rotate(38 172 144)"/><ellipse cx="219" cy="144" rx="19" ry="12" fill="#b8743e" transform="rotate(57 219 144)"/><ellipse cx="96" cy="176" rx="19" ry="12" fill="#d8904a" transform="rotate(76 96 176)"/><ellipse cx="143" cy="176" rx="19" ry="12" fill="#b8743e" transform="rotate(95 143 176)"/><ellipse cx="172" cy="176" rx="19" ry="12" fill="#d8904a" transform="rotate(114 172 176)"/><ellipse cx="219" cy="176" rx="19" ry="12" fill="#b8743e" transform="rotate(133 219 176)"/><ellipse cx="96" cy="208" rx="19" ry="12" fill="#d8904a" transform="rotate(152 96 208)"/><ellipse cx="143" cy="208" rx="19" ry="12" fill="#b8743e" transform="rotate(171 143 208)"/><ellipse cx="172" cy="208" rx="19" ry="12" fill="#d8904a" transform="rotate(190 172 208)"/><ellipse cx="219" cy="208" rx="19" ry="12" fill="#b8743e" transform="rotate(209 219 208)"/>
      <circle cx="88" cy="226" r="7" fill="#e6a44f"/>
      <circle cx="238" cy="130" r="7" fill="#f3d36a"/>
      <circle cx="229" cy="226" r="5" fill="#fff3d6"/>
    </g>
    <text x="160" y="286" text-anchor="middle" font-family="Arial, Microsoft YaHei, sans-serif" font-size="25" font-weight="800" fill="#473026">花生米</text>
  </svg>