<svg xmlns="http://www.w3.org/2000/svg" width="640" height="640" viewBox="0 0 320 320">
    <defs>
      <filter id="shadow" x="-20%" y="-20%" width="140%" height="150%"><feDropShadow dx="0" dy="10" stdDeviation="8" flood-color="#5b3828" flood-opacity=".18"/></filter>
      <pattern id="dots" width="32" height="32" patternUnits="userSpaceOnUse"><circle cx="8" cy="8" r="3" fill="#fff" opacity=".28"/></pattern>
    </defs>
    <rect width="320" height="320" rx="38" fill="#ffe4c9"/>
    <rect width="320" height="320" rx="38" fill="url(#dots)"/>
    <circle cx="62" cy="67" r="24" fill="#fff" opacity=".32"/>
    <circle cx="270" cy="70" r="18" fill="#fff" opacity=".28"/>
    <g filter="url(#shadow)">
      <ellipse cx="160" cy="194" rx="107" ry="62" fill="#fff8ec"/>
      <ellipse cx="160" cy="195" rx="83" ry="42" fill="#f5e3d0" opacity=".55"/>
      
        <rect x="86" y="142" width="155" height="35" rx="18" fill="#c45b42" transform="rotate(-10 86 142)"/>
        <rect x="94" y="179" width="150" height="34" rx="17" fill="#c45b42" transform="rotate(9 94 179)"/>
        <circle cx="75" cy="150" r="15" fill="#fff0d6"/><circle cx="247" cy="185" r="15" fill="#fff0d6"/>
        <path d="M110 151l108-18M116 195l99 16" stroke="#74342b" stroke-width="8" stroke-linecap="round" opacity=".35"/>
      <circle cx="88" cy="226" r="7" fill="#f0ca62"/>
      <circle cx="238" cy="130" r="7" fill="#67a66d"/>
      <circle cx="229" cy="226" r="5" fill="#fff3d6"/>
    </g>
    <text x="160" y="286" text-anchor="middle" font-family="Arial, Microsoft YaHei, sans-serif" font-size="25" font-weight="800" fill="#473026">排骨</text>
  </svg>