<svg xmlns="http://www.w3.org/2000/svg" width="640" height="640" viewBox="0 0 320 320">
    <defs>
      <filter id="shadow" x="-20%" y="-20%" width="140%" height="150%"><feDropShadow dx="0" dy="10" stdDeviation="8" flood-color="#5b3828" flood-opacity=".18"/></filter>
      <pattern id="dots" width="32" height="32" patternUnits="userSpaceOnUse"><circle cx="8" cy="8" r="3" fill="#fff" opacity=".28"/></pattern>
    </defs>
    <rect width="320" height="320" rx="38" fill="#ffd9d4"/>
    <rect width="320" height="320" rx="38" fill="url(#dots)"/>
    <circle cx="62" cy="67" r="24" fill="#fff" opacity=".32"/>
    <circle cx="270" cy="70" r="18" fill="#fff" opacity=".28"/>
    <g filter="url(#shadow)">
      <ellipse cx="160" cy="194" rx="107" ry="62" fill="#fff4e8"/>
      <ellipse cx="160" cy="195" rx="83" ry="42" fill="#f5e3d0" opacity=".55"/>
      
        <path d="M98 176c4-44 36-71 78-67 33 3 58 30 57 63-1 43-40 62-80 60-34-1-58-20-55-56z" fill="#d85a42"/>
        <circle cx="221" cy="112" r="18" fill="#fff2dc"/><rect x="207" y="98" width="38" height="18" rx="9" fill="#fff2dc"/>
        <path d="M117 160c38 18 69 18 101-3" fill="none" stroke="#9f2f2f" stroke-width="10" stroke-linecap="round" opacity=".38"/>
      <circle cx="88" cy="226" r="7" fill="#c51f2f"/>
      <circle cx="238" cy="130" r="7" fill="#5ba366"/>
      <circle cx="229" cy="226" r="5" fill="#fff3d6"/>
    </g>
    <text x="160" y="286" text-anchor="middle" font-family="Arial, Microsoft YaHei, sans-serif" font-size="25" font-weight="800" fill="#473026">香辣鸡</text>
  </svg>