<svg xmlns="http://www.w3.org/2000/svg" width="960" height="640" viewBox="0 0 960 640" role="img" aria-label="cartoon staple dish">
  <defs>
    <linearGradient id="staple-bg" x1="0" x2="1" y1="0" y2="1">
      <stop offset="0" stop-color="#fff0f6"/>
      <stop offset="1" stop-color="#ffd5e5"/>
    </linearGradient>
    <filter id="soft-shadow" x="-20%" y="-20%" width="140%" height="150%">
      <feDropShadow dx="0" dy="18" stdDeviation="18" flood-color="#bd5c82" flood-opacity=".17"/>
    </filter>
  </defs>
  <rect width="960" height="640" rx="42" fill="url(#staple-bg)"/>
  <circle cx="142" cy="118" r="54" fill="#fffafd" opacity=".58"/>
  <circle cx="820" cy="118" r="38" fill="#fffafd" opacity=".48"/>
  <circle cx="805" cy="508" r="86" fill="#fffafd" opacity=".35"/>
  <g filter="url(#soft-shadow)">
    <ellipse cx="480" cy="414" rx="294" ry="112" fill="#fffafd"/>
    <ellipse cx="480" cy="418" rx="226" ry="72" fill="#ffe4ee"/>
    <path d="M298 371c62-58 116 55 174 0s111 55 171 2" fill="none" stroke="#ffd36a" stroke-width="34" stroke-linecap="round"/>
    <path d="M296 426c74-54 128 45 199 1 62-38 104 37 168-3" fill="none" stroke="#ffe08d" stroke-width="34" stroke-linecap="round"/>
    <path d="M321 336c54 17 95 13 138-18M500 334c55 20 98 17 139-8" fill="none" stroke="#b96a86" stroke-width="14" stroke-linecap="round" opacity=".34"/>
    <circle cx="344" cy="296" r="24" fill="#ff7fa4"/>
    <circle cx="606" cy="304" r="22" fill="#58a866"/>
    <circle cx="518" cy="284" r="18" fill="#fff4cc"/>
    <rect x="368" y="213" width="196" height="26" rx="13" fill="#a35a76" transform="rotate(-13 368 213)"/>
    <rect x="382" y="245" width="202" height="22" rx="11" fill="#a35a76" transform="rotate(-13 382 245)"/>
  </g>
</svg>
