<svg xmlns="http://www.w3.org/2000/svg" width="960" height="640" viewBox="0 0 960 640" role="img" aria-label="cartoon staple dish">
  <defs>
    <linearGradient id="staple-bg" x1="0" x2="1" y1="0" y2="1">
      <stop offset="0" stop-color="#fff0bf"/>
      <stop offset="1" stop-color="#ffe1aa"/>
    </linearGradient>
    <filter id="soft-shadow" x="-20%" y="-20%" width="140%" height="150%">
      <feDropShadow dx="0" dy="18" stdDeviation="18" flood-color="#855a25" flood-opacity=".18"/>
    </filter>
  </defs>
  <rect width="960" height="640" rx="42" fill="url(#staple-bg)"/>
  <circle cx="142" cy="118" r="54" fill="#fffaf0" opacity=".56"/>
  <circle cx="820" cy="118" r="38" fill="#fffaf0" opacity=".45"/>
  <circle cx="805" cy="508" r="86" fill="#fffaf0" opacity=".32"/>
  <g filter="url(#soft-shadow)">
    <ellipse cx="480" cy="414" rx="294" ry="112" fill="#fffaf0"/>
    <ellipse cx="480" cy="418" rx="226" ry="72" fill="#f3d7a4"/>
    <path d="M298 371c62-58 116 55 174 0s111 55 171 2" fill="none" stroke="#e9b94f" stroke-width="34" stroke-linecap="round"/>
    <path d="M296 426c74-54 128 45 199 1 62-38 104 37 168-3" fill="none" stroke="#f1cb70" stroke-width="34" stroke-linecap="round"/>
    <path d="M321 336c54 17 95 13 138-18M500 334c55 20 98 17 139-8" fill="none" stroke="#b87935" stroke-width="14" stroke-linecap="round" opacity=".34"/>
    <circle cx="344" cy="296" r="24" fill="#ef604e"/>
    <circle cx="606" cy="304" r="22" fill="#58a866"/>
    <circle cx="518" cy="284" r="18" fill="#fff4cc"/>
    <rect x="368" y="213" width="196" height="26" rx="13" fill="#8b5738" transform="rotate(-13 368 213)"/>
    <rect x="382" y="245" width="202" height="22" rx="11" fill="#8b5738" transform="rotate(-13 382 245)"/>
  </g>
</svg>
