<svg xmlns="http://www.w3.org/2000/svg" width="640" height="640" viewBox="0 0 320 320">
    <defs>
      <filter id="shadow" x="-20%" y="-20%" width="140%" height="150%"><feDropShadow dx="0" dy="10" stdDeviation="8" flood-color="#5b3828" flood-opacity=".18"/></filter>
      <pattern id="dots" width="32" height="32" patternUnits="userSpaceOnUse"><circle cx="8" cy="8" r="3" fill="#fff" opacity=".28"/></pattern>
    </defs>
    <rect width="320" height="320" rx="38" fill="#ffe0bd"/>
    <rect width="320" height="320" rx="38" fill="url(#dots)"/>
    <circle cx="62" cy="67" r="24" fill="#fff" opacity=".32"/>
    <circle cx="270" cy="70" r="18" fill="#fff" opacity=".28"/>
    <g filter="url(#shadow)">
      <ellipse cx="160" cy="194" rx="107" ry="62" fill="#fff8ec"/>
      <ellipse cx="160" cy="195" rx="83" ry="42" fill="#f5e3d0" opacity=".55"/>
      
        <ellipse cx="145" cy="166" rx="55" ry="38" fill="#a85b39" transform="rotate(-20 145 166)"/>
        <rect x="184" y="126" width="72" height="26" rx="13" fill="#fff0d6" transform="rotate(-20 184 126)"/>
        <circle cx="254" cy="115" r="17" fill="#fff0d6"/>
        <path d="M114 167c31 17 60 17 89-2" fill="none" stroke="#5f2d24" stroke-width="9" stroke-linecap="round" opacity=".36"/>
      <circle cx="88" cy="226" r="7" fill="#f5d66b"/>
      <circle cx="238" cy="130" r="7" fill="#6aad75"/>
      <circle cx="229" cy="226" r="5" fill="#fff3d6"/>
    </g>
    <text x="160" y="286" text-anchor="middle" font-family="Arial, Microsoft YaHei, sans-serif" font-size="25" font-weight="800" fill="#473026">照烧鸡腿</text>
  </svg>