<svg xmlns="http://www.w3.org/2000/svg" width="640" height="640" viewBox="0 0 320 320">
    <defs>
      <filter id="shadow" x="-20%" y="-20%" width="140%" height="150%"><feDropShadow dx="0" dy="10" stdDeviation="8" flood-color="#5b3828" flood-opacity=".18"/></filter>
      <pattern id="dots" width="32" height="32" patternUnits="userSpaceOnUse"><circle cx="8" cy="8" r="3" fill="#fff" opacity=".28"/></pattern>
    </defs>
    <rect width="320" height="320" rx="38" fill="#ffe4b8"/>
    <rect width="320" height="320" rx="38" fill="url(#dots)"/>
    <circle cx="62" cy="67" r="24" fill="#fff" opacity=".32"/>
    <circle cx="270" cy="70" r="18" fill="#fff" opacity=".28"/>
    <g filter="url(#shadow)">
      <ellipse cx="160" cy="194" rx="107" ry="62" fill="#fffaf0"/>
      <ellipse cx="160" cy="195" rx="83" ry="42" fill="#f5e3d0" opacity=".55"/>
      
        <circle cx="120" cy="163" r="33" fill="#e75c45"/><circle cx="205" cy="171" r="34" fill="#e75c45"/>
        <ellipse cx="160" cy="141" rx="45" ry="28" fill="#f4c742" transform="rotate(-10 160 141)"/>
        <ellipse cx="152" cy="204" rx="50" ry="31" fill="#ffd85a" transform="rotate(9 152 204)"/>
        <path d="M109 158c20 10 36 10 53 0M188 171c17 10 32 10 47 1" stroke="#fff0d6" stroke-width="7" stroke-linecap="round" opacity=".75"/>
      <circle cx="88" cy="226" r="7" fill="#e84d3c"/>
      <circle cx="238" cy="130" r="7" fill="#f6d253"/>
      <circle cx="229" cy="226" r="5" fill="#fff3d6"/>
    </g>
    <text x="160" y="286" text-anchor="middle" font-family="Arial, Microsoft YaHei, sans-serif" font-size="25" font-weight="800" fill="#473026">番茄炒蛋</text>
  </svg>