<svg xmlns="http://www.w3.org/2000/svg" width="640" height="640" viewBox="0 0 320 320">
    <defs>
      <filter id="shadow" x="-20%" y="-20%" width="140%" height="150%"><feDropShadow dx="0" dy="10" stdDeviation="8" flood-color="#5b3828" flood-opacity=".18"/></filter>
      <pattern id="dots" width="32" height="32" patternUnits="userSpaceOnUse"><circle cx="8" cy="8" r="3" fill="#fff" opacity=".28"/></pattern>
    </defs>
    <rect width="320" height="320" rx="38" fill="#dff2d2"/>
    <rect width="320" height="320" rx="38" fill="url(#dots)"/>
    <circle cx="62" cy="67" r="24" fill="#fff" opacity=".32"/>
    <circle cx="270" cy="70" r="18" fill="#fff" opacity=".28"/>
    <g filter="url(#shadow)">
      <ellipse cx="160" cy="194" rx="107" ry="62" fill="#fffaf0"/>
      <ellipse cx="160" cy="195" rx="83" ry="42" fill="#f5e3d0" opacity=".55"/>
      
        <path d="M95 205c24-52 56-82 77-103 11 41-5 90-43 121z" fill="#4f9c5d"/>
        <path d="M158 223c-3-60 19-94 50-119 15 39 2 86-50 119z" fill="#6bbd6f"/>
        <path d="M122 215c34-38 75-53 112-58-9 39-43 69-112 58z" fill="#2f7442"/>
        <path d="M113 200c37-25 70-50 96-86" stroke="#dff4d3" stroke-width="8" stroke-linecap="round" opacity=".8"/>
      <circle cx="88" cy="226" r="7" fill="#8fcf7c"/>
      <circle cx="238" cy="130" r="7" fill="#f4c44f"/>
      <circle cx="229" cy="226" r="5" fill="#fff3d6"/>
    </g>
    <text x="160" y="286" text-anchor="middle" font-family="Arial, Microsoft YaHei, sans-serif" font-size="25" font-weight="800" fill="#473026">青菜</text>
  </svg>